<svg width="754" height="70" viewBox="0 0 754 70" fill="none" xmlns="http://www.w3.org/2000/svg">
<path d="M1.288 2.856V35.304H34.6V36.36H1.288V69H0.136V1.8H39.4V2.856H1.288ZM108.947 67.944V69H73.5235V1.8H74.6755V67.944H108.947ZM180.083 67.944L179.987 69H140.723V1.8H179.987V2.856H141.875V34.344H174.227V35.4H141.875V67.944H180.083ZM213.398 67.944L213.302 69H174.038V1.8H213.302V2.856H175.19V34.344H207.542V35.4H175.19V67.944H213.398ZM291.21 2.856H265.962V69H264.81V2.856H239.37V1.8H291.21V2.856Z" fill="white"/>
<path d="M411.77 58.968C411.898 58.968 412.074 59.048 412.298 59.208L413.306 60.264C411.898 61.672 410.378 62.968 408.746 64.152C407.114 65.304 405.322 66.296 403.37 67.128C401.418 67.96 399.274 68.6 396.938 69.048C394.634 69.528 392.09 69.768 389.306 69.768C384.73 69.768 380.506 68.968 376.634 67.368C372.794 65.736 369.482 63.432 366.698 60.456C363.914 57.448 361.738 53.816 360.17 49.56C358.602 45.304 357.818 40.536 357.818 35.256C357.818 30.104 358.602 25.416 360.17 21.192C361.738 16.936 363.946 13.304 366.794 10.296C369.674 7.256 373.098 4.904 377.066 3.23999C381.066 1.576 385.466 0.743998 390.266 0.743998C394.778 0.743998 398.778 1.432 402.266 2.808C405.754 4.184 409.002 6.168 412.01 8.75999L411.29 9.816C411.162 10.04 410.906 10.152 410.522 10.152C410.33 10.152 409.994 9.976 409.514 9.62399C409.066 9.272 408.458 8.84 407.69 8.328C406.954 7.784 406.042 7.208 404.954 6.6C403.898 5.96 402.65 5.384 401.21 4.872C399.77 4.328 398.138 3.88 396.314 3.528C394.49 3.17599 392.474 2.99999 390.266 2.99999C385.914 2.99999 381.914 3.752 378.266 5.256C374.618 6.76 371.482 8.904 368.858 11.688C366.234 14.472 364.186 17.864 362.714 21.864C361.274 25.832 360.554 30.296 360.554 35.256C360.554 40.312 361.274 44.84 362.714 48.84C364.186 52.808 366.218 56.184 368.81 58.968C371.402 61.72 374.458 63.832 377.978 65.304C381.498 66.776 385.322 67.512 389.45 67.512C392.042 67.512 394.362 67.336 396.41 66.984C398.458 66.632 400.33 66.104 402.026 65.4C403.754 64.696 405.338 63.832 406.778 62.808C408.25 61.784 409.706 60.616 411.146 59.304C411.37 59.08 411.578 58.968 411.77 58.968ZM529.58 3.816H504.86V69H502.22V3.816H477.356V1.512H529.58V3.816ZM603.379 35.208H616.243C619.411 35.208 622.259 34.84 624.787 34.104C627.347 33.336 629.507 32.248 631.267 30.84C633.059 29.4 634.419 27.672 635.347 25.656C636.307 23.64 636.787 21.368 636.787 18.84C636.787 13.624 635.091 9.784 631.699 7.32C628.307 4.856 623.411 3.62399 617.011 3.62399H603.379V35.208ZM645.523 69H643.363C643.011 69 642.691 68.952 642.403 68.856C642.147 68.76 641.891 68.536 641.635 68.184L617.827 39.048C617.571 38.696 617.299 38.408 617.011 38.184C616.755 37.96 616.451 37.784 616.099 37.656C615.779 37.496 615.379 37.384 614.899 37.32C614.451 37.256 613.891 37.224 613.219 37.224H603.379V69H600.739V1.512H617.011C624.339 1.512 629.907 2.936 633.715 5.784C637.523 8.632 639.427 12.952 639.427 18.744C639.427 21.4 638.931 23.816 637.939 25.992C636.947 28.136 635.555 30.008 633.763 31.608C631.971 33.176 629.795 34.44 627.235 35.4C624.675 36.328 621.843 36.888 618.739 37.08C619.315 37.4 619.875 37.88 620.419 38.52L645.523 69ZM753.156 66.696V69H717.06V1.512H719.7V66.696H753.156Z" fill="black"/>
</svg>
